<svg width="17" height="16" viewBox="0 0 17 16" fill="none" xmlns="http://www.w3.org/2000/svg">
<path d="M6.24667 9.71851C6.79822 9.71851 7.24536 10.1656 7.24536 10.7172V15.0013C7.24536 15.5529 6.79822 15.9999 6.24667 15.9999C5.69518 15.9999 5.24805 15.5529 5.24805 15.0013V10.7172C5.24805 10.1657 5.69518 9.71858 6.24667 9.71858V9.71851Z" fill="white"/>
<path d="M3.96711 4.56787C3.96381 4.60574 3.96094 4.64403 3.96094 4.68274V11.1736C3.96094 11.8716 4.51347 12.434 5.19939 12.434H11.8001C12.4861 12.434 13.0386 11.8715 13.0386 11.1736V4.68274C13.0386 4.64403 13.0372 4.6056 13.034 4.56787H3.96711Z" fill="white"/>
<path d="M10.7524 9.7185C11.3039 9.7185 11.7511 10.1656 11.7511 10.7172V15.0013C11.7511 15.5529 11.3039 15.9999 10.7524 15.9999C10.2009 15.9999 9.75375 15.5529 9.75375 15.0013V10.7172C9.75375 10.1657 10.2009 9.71857 10.7524 9.71857V9.7185ZM2.35611 5.14547C2.9076 5.14547 3.35473 5.59261 3.35473 6.14416V10.4283C3.35473 10.9798 2.9076 11.427 2.35611 11.427C1.80456 11.427 1.35742 10.9798 1.35742 10.4283V6.14423C1.35735 5.59267 1.80449 5.14547 2.35611 5.14547ZM14.6431 5.14547C15.1946 5.14547 15.6417 5.59261 15.6417 6.14416V10.4283C15.6417 10.9798 15.1946 11.427 14.6431 11.427C14.0916 11.427 13.6444 10.9798 13.6444 10.4283V6.14423C13.6444 5.59267 14.0916 5.14547 14.6431 5.14547ZM3.99605 4.14145C4.02382 2.14772 5.76397 0.51304 7.99768 0.297607H9.00135C11.2352 0.51311 12.9752 2.14786 13.003 4.14145H3.99605Z" fill="white"/>
<path d="M4.34375 0.105225L5.39721 1.92995M12.6562 0.105225L11.6027 1.92995" stroke="white" stroke-width="0.210383" stroke-linecap="round" stroke-linejoin="round"/>
<path d="M7.15833 2.35492C7.15918 2.63361 6.92853 2.86019 6.64311 2.86096C6.35783 2.86166 6.12584 2.63641 6.125 2.35773V2.35492C6.12423 2.07616 6.35488 1.84965 6.64023 1.84888C6.92551 1.84811 7.15749 2.07329 7.15833 2.35212V2.35492ZM11.0151 2.35492C11.0159 2.63361 10.7853 2.86019 10.4999 2.86096C10.2146 2.86166 9.98259 2.63641 9.98175 2.35773V2.35492C9.98098 2.07616 10.2116 1.84965 10.497 1.84888C10.7823 1.84811 11.0142 2.07329 11.0151 2.35212V2.35492Z" fill="#040404"/>
</svg>
