<svg width="14" height="16" viewBox="0 0 14 16" fill="none" xmlns="http://www.w3.org/2000/svg">
<path d="M11.5187 8.45511C11.5115 7.14416 12.1045 6.15469 13.3047 5.42599C12.6332 4.4651 11.6187 3.93643 10.2792 3.83284C9.01108 3.73282 7.62511 4.57226 7.11787 4.57226C6.58206 4.57226 5.35327 3.86856 4.38881 3.86856C2.39559 3.90071 0.277344 5.45814 0.277344 8.62657C0.277344 9.56245 0.448803 10.5293 0.791723 11.5271C1.24895 12.8381 2.89925 16.0529 4.62099 15.9993C5.52115 15.9779 6.15698 15.3599 7.32863 15.3599C8.46455 15.3599 9.05394 15.9993 10.0577 15.9993C11.7937 15.9743 13.2869 13.0524 13.7226 11.7379C11.3937 10.6412 11.5187 8.52298 11.5187 8.45511ZM9.49688 2.58976C10.4721 1.4324 10.3828 0.37864 10.3542 0C9.49331 0.0500091 8.4967 0.585821 7.92873 1.24666C7.30362 1.95393 6.9357 2.82909 7.01428 3.81498C7.9466 3.88642 8.79675 3.40776 9.49688 2.58976Z" fill="white"/>
</svg>
