<svg width="15" height="17" viewBox="0 0 15 17" fill="none" xmlns="http://www.w3.org/2000/svg">
<path d="M12.0187 9.30472C12.0115 7.99377 12.6045 7.0043 13.8047 6.2756C13.1332 5.31471 12.1187 4.78604 10.7792 4.68245C9.51108 4.58243 8.12511 5.42187 7.61787 5.42187C7.08206 5.42187 5.85327 4.71817 4.88881 4.71817C2.89559 4.75032 0.777344 6.30775 0.777344 9.47618C0.777344 10.4121 0.948803 11.3789 1.29172 12.3767C1.74895 13.6877 3.39925 16.9025 5.12099 16.8489C6.02115 16.8275 6.65698 16.2095 7.82863 16.2095C8.96455 16.2095 9.55394 16.8489 10.5577 16.8489C12.2937 16.8239 13.7869 13.902 14.2226 12.5875C11.8937 11.4908 12.0187 9.37259 12.0187 9.30472ZM9.99688 3.43937C10.9721 2.28201 10.8828 1.22825 10.8542 0.849609C9.99331 0.899618 8.9967 1.43543 8.42873 2.09626C7.80362 2.80354 7.4357 3.6787 7.51428 4.66459C8.4466 4.73603 9.29675 4.25737 9.99688 3.43937Z" fill="black"/>
</svg>
