<svg width="20" height="20" viewBox="0 0 20 20" fill="none" xmlns="http://www.w3.org/2000/svg">
<path d="M16.2515 3.53789H10.5237V0.673984C10.5237 0.484095 10.4482 0.301984 10.314 0.167712C10.1797 0.0334408 9.99758 -0.0419922 9.80769 -0.0419922C9.6178 -0.0419922 9.43569 0.0334408 9.30142 0.167712C9.16715 0.301984 9.09172 0.484095 9.09172 0.673984V3.53789H3.36391C2.60435 3.53789 1.8759 3.83962 1.33882 4.37671C0.801732 4.91379 0.5 5.64224 0.5 6.40179V16.4255C0.5 17.185 0.801732 17.9135 1.33882 18.4505C1.8759 18.9876 2.60435 19.2894 3.36391 19.2894H16.2515C17.011 19.2894 17.7395 18.9876 18.2766 18.4505C18.8137 17.9135 19.1154 17.185 19.1154 16.4255V6.40179C19.1154 5.64224 18.8137 4.91379 18.2766 4.37671C17.7395 3.83962 17.011 3.53789 16.2515 3.53789ZM17.6834 16.4255C17.6834 16.8052 17.5326 17.1695 17.264 17.438C16.9955 17.7065 16.6313 17.8574 16.2515 17.8574H3.36391C2.98413 17.8574 2.61991 17.7065 2.35136 17.438C2.08282 17.1695 1.93195 16.8052 1.93195 16.4255V6.40179C1.93195 6.02202 2.08282 5.65779 2.35136 5.38925C2.61991 5.12071 2.98413 4.96984 3.36391 4.96984H16.2515C16.6313 4.96984 16.9955 5.12071 17.264 5.38925C17.5326 5.65779 17.6834 6.02202 17.6834 6.40179V16.4255ZM13.0296 11.4136H6.5858C5.92119 11.4136 5.2838 11.6776 4.81385 12.1476C4.3439 12.6175 4.07988 13.2549 4.07988 13.9195C4.07988 14.5842 4.3439 15.2215 4.81385 15.6915C5.2838 16.1614 5.92119 16.4255 6.5858 16.4255H13.0296C13.6942 16.4255 14.3316 16.1614 14.8015 15.6915C15.2715 15.2215 15.5355 14.5842 15.5355 13.9195C15.5355 13.2549 15.2715 12.6175 14.8015 12.1476C14.3316 11.6776 13.6942 11.4136 13.0296 11.4136ZM10.8817 12.8456V14.9935H8.73373V12.8456H10.8817ZM5.51183 13.9195C5.51183 13.6347 5.62498 13.3615 5.82639 13.1601C6.0278 12.9587 6.30097 12.8456 6.5858 12.8456H7.30178V14.9935H6.5858C6.30097 14.9935 6.0278 14.8804 5.82639 14.679C5.62498 14.4775 5.51183 14.2044 5.51183 13.9195ZM13.0296 14.9935H12.3136V12.8456H13.0296C13.3144 12.8456 13.5876 12.9587 13.789 13.1601C13.9904 13.3615 14.1036 13.6347 14.1036 13.9195C14.1036 14.2044 13.9904 14.4775 13.789 14.679C13.5876 14.8804 13.3144 14.9935 13.0296 14.9935ZM4.79586 8.90771C4.79586 8.6953 4.85884 8.48766 4.97685 8.31105C5.09486 8.13444 5.26259 7.99678 5.45883 7.9155C5.65508 7.83421 5.87101 7.81294 6.07934 7.85438C6.28767 7.89582 6.47903 7.99811 6.62923 8.1483C6.77943 8.2985 6.88171 8.48986 6.92315 8.69819C6.96459 8.90652 6.94332 9.12246 6.86204 9.3187C6.78075 9.51494 6.6431 9.68267 6.46649 9.80068C6.28987 9.91869 6.08223 9.98168 5.86982 9.98168C5.58499 9.98168 5.31182 9.86853 5.11041 9.66712C4.90901 9.46571 4.79586 9.19255 4.79586 8.90771ZM12.6716 8.90771C12.6716 8.6953 12.7346 8.48766 12.8526 8.31105C12.9706 8.13444 13.1383 7.99678 13.3346 7.9155C13.5308 7.83421 13.7468 7.81294 13.9551 7.85438C14.1634 7.89582 14.3548 7.99811 14.505 8.1483C14.6552 8.2985 14.7575 8.48986 14.7989 8.69819C14.8403 8.90652 14.8191 9.12246 14.7378 9.3187C14.6565 9.51494 14.5188 9.68267 14.3422 9.80068C14.1656 9.91869 13.958 9.98168 13.7456 9.98168C13.4607 9.98168 13.1876 9.86853 12.9862 9.66712C12.7847 9.46571 12.6716 9.19255 12.6716 8.90771Z" fill="#954CEE" stroke="#954CEE" stroke-width="0.2"/>
</svg>
