<svg width="23" height="19" viewBox="0 0 23 19" fill="none" xmlns="http://www.w3.org/2000/svg">
<path d="M1.6664 1.6658C1.30757 1.6658 1 1.35823 1 0.982313C1 0.623485 1.30757 0.315918 1.6664 0.315918H3.40928C3.42636 0.315918 3.46054 0.315918 3.47762 0.315918C4.09276 0.333005 4.63954 0.452614 5.10089 0.743095C5.61351 1.06775 5.98942 1.56327 6.19447 2.29802C6.19447 2.3151 6.19447 2.33219 6.21155 2.34928L6.38242 3.03276H21.3336C21.7095 3.03276 22 3.34033 22 3.69916C22 3.7675 21.9829 3.83585 21.9658 3.9042L20.2229 10.927C20.1546 11.2345 19.8812 11.4396 19.5736 11.4396H8.63792C8.87714 12.3281 9.11635 12.8066 9.44101 13.0287C9.83401 13.285 10.5175 13.3021 11.6623 13.285H11.6794H19.4028C19.7787 13.285 20.0692 13.5926 20.0692 13.9514C20.0692 14.3273 19.7616 14.6178 19.4028 14.6178H11.6794C10.2612 14.6349 9.38975 14.6007 8.68918 14.1394C7.97152 13.6609 7.59561 12.8407 7.21969 11.3542L4.93002 2.69102C4.93002 2.67393 4.93002 2.67393 4.91294 2.65685C4.81041 2.28093 4.63954 2.02462 4.40033 1.88793C4.16111 1.73414 3.83645 1.6658 3.46054 1.6658C3.44345 1.6658 3.42636 1.6658 3.40928 1.6658H1.6664ZM17.4036 15.4038C18.3092 15.4038 19.0439 16.1385 19.0439 17.0442C19.0439 17.9498 18.3092 18.6845 17.4036 18.6845C16.498 18.6845 15.7632 17.9498 15.7632 17.0442C15.7632 16.1385 16.498 15.4038 17.4036 15.4038ZM10.2099 15.4038C11.1155 15.4038 11.8503 16.1385 11.8503 17.0442C11.8503 17.9498 11.1155 18.6845 10.2099 18.6845C9.30431 18.6845 8.56957 17.9498 8.56957 17.0442C8.56957 16.1385 9.30431 15.4038 10.2099 15.4038ZM6.75834 4.36555L8.27909 10.0897H19.061L20.4792 4.36555H6.75834Z" fill="#954CEE" stroke="#954CEE" stroke-width="0.4"/>
</svg>
