<svg width="20" height="24" viewBox="0 0 20 24" fill="none" xmlns="http://www.w3.org/2000/svg">
<path d="M15 20C15 18.3431 12.7614 17 10 17C7.23858 17 5 18.3431 5 20M19 17.0004C19 15.7702 17.7659 14.7129 16 14.25M1 17.0004C1 15.7702 2.2341 14.7129 4 14.25M16 10.2361C16.6137 9.68679 17 8.8885 17 8C17 6.34315 15.6569 5 14 5C13.2316 5 12.5308 5.28885 12 5.76389M4 10.2361C3.38625 9.68679 3 8.8885 3 8C3 6.34315 4.34315 5 6 5C6.76835 5 7.46924 5.28885 8 5.76389M10 14C8.34315 14 7 12.6569 7 11C7 9.34315 8.34315 8 10 8C11.6569 8 13 9.34315 13 11C13 12.6569 11.6569 14 10 14Z" stroke="#954CEE" stroke-width="2" stroke-linecap="round" stroke-linejoin="round"/>
</svg>
