<svg width="17" height="16" viewBox="0 0 17 16" fill="none" xmlns="http://www.w3.org/2000/svg">
<path d="M15.5005 8.49953V12.4994C15.5005 12.7646 15.3952 13.019 15.2077 13.2065C15.0201 13.394 14.7658 13.4994 14.5006 13.4994H2.50095C2.23574 13.4994 1.98139 13.394 1.79386 13.2065C1.60633 13.019 1.50098 12.7646 1.50098 12.4994V8.49953C1.50098 8.23432 1.60633 7.97997 1.79386 7.79244C1.98139 7.60491 2.23574 7.49956 2.50095 7.49956H5.00087C5.13347 7.49956 5.26065 7.55223 5.35441 7.646C5.44818 7.73976 5.50085 7.86694 5.50085 7.99954C5.50085 8.13214 5.44818 8.25932 5.35441 8.35308C5.26065 8.44685 5.13347 8.49953 5.00087 8.49953H2.50095V12.4994H14.5006V8.49953H12.0007C11.8681 8.49953 11.7409 8.44685 11.6471 8.35308C11.5533 8.25932 11.5007 8.13214 11.5007 7.99954C11.5007 7.86694 11.5533 7.73976 11.6471 7.646C11.7409 7.55223 11.8681 7.49956 12.0007 7.49956H14.5006C14.7658 7.49956 15.0201 7.60491 15.2077 7.79244C15.3952 7.97997 15.5005 8.23432 15.5005 8.49953ZM8.14702 8.35328C8.19346 8.39977 8.2486 8.43665 8.3093 8.46181C8.37 8.48697 8.43506 8.49992 8.50076 8.49992C8.56647 8.49992 8.63153 8.48697 8.69223 8.46181C8.75292 8.43665 8.80807 8.39977 8.8545 8.35328L11.8544 5.35337C11.9482 5.25955 12.0009 5.13231 12.0009 4.99963C12.0009 4.86696 11.9482 4.73971 11.8544 4.64589C11.7606 4.55208 11.6333 4.49937 11.5007 4.49937C11.368 4.49937 11.2407 4.55208 11.1469 4.64589L9.00075 6.7927V1.49974C9.00075 1.36714 8.94807 1.23996 8.85431 1.1462C8.76054 1.05243 8.63337 0.999756 8.50076 0.999756C8.36816 0.999756 8.24098 1.05243 8.14722 1.1462C8.05345 1.23996 8.00078 1.36714 8.00078 1.49974V6.7927L5.85459 4.64589C5.76078 4.55208 5.63353 4.49937 5.50085 4.49937C5.36818 4.49937 5.24093 4.55208 5.14711 4.64589C5.0533 4.73971 5.00059 4.86696 5.00059 4.99963C5.00059 5.13231 5.0533 5.25955 5.14711 5.35337L8.14702 8.35328ZM13.0006 10.4995C13.0006 10.3511 12.9566 10.2061 12.8742 10.0828C12.7918 9.95947 12.6747 9.86334 12.5377 9.80658C12.4006 9.74981 12.2498 9.73496 12.1043 9.7639C11.9589 9.79284 11.8252 9.86426 11.7203 9.96915C11.6154 10.074 11.544 10.2077 11.5151 10.3532C11.4861 10.4986 11.501 10.6494 11.5578 10.7865C11.6145 10.9235 11.7106 11.0406 11.834 11.123C11.9573 11.2055 12.1023 11.2494 12.2506 11.2494C12.4496 11.2494 12.6403 11.1704 12.781 11.0298C12.9216 10.8891 13.0006 10.6984 13.0006 10.4995Z" fill="white" stroke="white" stroke-width="0.2"/>
</svg>
