<svg width="20" height="20" viewBox="0 0 20 20" fill="none" xmlns="http://www.w3.org/2000/svg">
<path fill-rule="evenodd" clip-rule="evenodd" d="M8.6662 3.35275L10 4.67895L11.3338 3.35275C12.0428 2.6478 12.9742 2.22179 14 2.22179C16.2091 2.22179 18 4.2113 18 6.66543C18 7.45393 17.925 8.19347 17.788 8.88717H15.1583L13.9181 5.67232C13.7605 5.26386 13.399 4.99902 12.9989 4.99902C12.5989 4.99902 12.2374 5.26386 12.0798 5.67232L9.99893 11.0661L9.41813 9.56048C9.26052 9.15201 8.89902 8.88717 8.49893 8.88717H2.21198C2.07502 8.19345 2 7.4539 2 6.66538C2 4.21125 3.79086 2.22179 6 2.22179C7.02575 2.22179 7.95717 2.6478 8.6662 3.35275ZM0.730742 11.109C2.52951 16.2757 7.16667 18.8993 9.116 19.8022C9.6855 20.0659 10.3145 20.0659 10.884 19.8022C13.3285 18.6699 20 14.8318 20 6.66545C20 2.98425 17.3137 0 14 0C12.4633 0 11.0615 0.641777 10 1.69722C8.9385 0.641777 7.53671 0 6 0C2.68629 0 0 2.98419 0 6.66539C0 7.44495 0.0607955 8.18508 0.172906 8.88717H0.171875C0.297675 9.67502 0.488085 10.4149 0.729715 11.109H0.730742ZM2.91281 11.109H7.83957L9.07983 14.3238C9.23743 14.7323 9.59893 14.9971 9.99893 14.9971C10.399 14.9971 10.7605 14.7323 10.9181 14.3238L12.9989 8.93005L13.5798 10.4356C13.7374 10.8441 14.0989 11.109 14.4989 11.109H17.0872C16.5432 12.3364 15.7979 13.3825 14.9678 14.2751C13.2456 16.1268 11.2202 17.2392 10.1143 17.7515C10.0374 17.787 9.9626 17.787 9.8857 17.7515C8.7798 17.2392 6.75438 16.1268 5.03224 14.2751C4.20207 13.3826 3.45677 12.3365 2.91281 11.109Z" fill="#954CEE"/>
</svg>
