<svg width="515" height="400" viewBox="0 0 515 400" fill="none" xmlns="http://www.w3.org/2000/svg">
<mask id="path-1-inside-1_1234_10794" fill="white">
<path d="M0 30C0 13.4315 13.4315 0 30 0H485C501.569 0 515 13.4315 515 30V370C515 386.569 501.569 400 485 400H30C13.4315 400 0 386.569 0 370V30Z"/>
</mask>
<path d="M0 30C0 13.4315 13.4315 0 30 0H485C501.569 0 515 13.4315 515 30V370C515 386.569 501.569 400 485 400H30C13.4315 400 0 386.569 0 370V30Z" fill="url(#paint0_linear_1234_10794)"/>
<path d="M-1 30C-1 12.8792 12.8792 -1 30 -1H485C502.121 -1 516 12.8792 516 30H514C514 13.9837 501.016 1 485 1H30C13.9837 1 1 13.9837 1 30H-1ZM515 400H0H515ZM30 400C12.8792 400 -1 386.121 -1 369V30C-1 12.8792 12.8792 -1 30 -1V1C13.9837 1 1 13.9837 1 30V370C1 386.569 13.9837 400 30 400ZM485 -1C502.121 -1 516 12.8792 516 30V369C516 386.121 502.121 400 485 400C501.016 400 514 386.569 514 370V30C514 13.9837 501.016 1 485 1V-1Z" fill="white" fill-opacity="0.05" mask="url(#path-1-inside-1_1234_10794)"/>
<path d="M257.257 93.2959L257.257 297.859" stroke="white" stroke-opacity="0.2" stroke-width="1.33876" stroke-linejoin="round" stroke-dasharray="5.84 5.84"/>
<line x1="60" y1="123.318" x2="454.651" y2="123.318" stroke="white" stroke-opacity="0.075" stroke-width="1.32433" stroke-dasharray="2.65 2.65"/>
<line x1="60" y1="167.153" x2="454.651" y2="167.153" stroke="white" stroke-opacity="0.075" stroke-width="1.32433" stroke-dasharray="2.65 2.65"/>
<line x1="60" y1="210.988" x2="454.651" y2="210.988" stroke="white" stroke-opacity="0.075" stroke-width="1.32433" stroke-dasharray="2.65 2.65"/>
<line x1="60" y1="254.823" x2="454.651" y2="254.823" stroke="white" stroke-opacity="0.075" stroke-width="1.32433" stroke-dasharray="2.65 2.65"/>
<line x1="60" y1="298.658" x2="454.651" y2="298.658" stroke="white" stroke-opacity="0.075" stroke-width="1.32433" stroke-dasharray="2.65 2.65"/>
<path d="M62.5918 347.927V338.317H60.5387V337.079H64.0333V347.927H62.5918ZM69.928 348.101C69.365 348.101 68.836 348.004 68.3409 347.81C67.8458 347.606 67.4139 347.32 67.045 346.951C66.6858 346.573 66.4237 346.131 66.2587 345.626L67.4236 345.131C67.6274 345.665 67.9575 346.082 68.4137 346.383C68.8796 346.675 69.3844 346.82 69.928 346.82C70.3745 346.82 70.7677 346.723 71.1074 346.529C71.4569 346.325 71.7287 346.048 71.9228 345.699C72.117 345.34 72.214 344.942 72.214 344.505C72.214 344.049 72.1121 343.646 71.9083 343.296C71.7141 342.947 71.4472 342.675 71.1074 342.481C70.7677 342.277 70.3794 342.175 69.9426 342.175C69.496 342.175 69.0883 342.277 68.7195 342.481C68.3506 342.685 68.0837 342.942 67.9186 343.253L66.7683 343.005L67.5983 337.079H73.2187V338.317H68.137L68.6904 337.763L68.0497 342.365L67.5546 342.073C67.875 341.666 68.2487 341.374 68.6758 341.2C69.1126 341.015 69.5834 340.923 70.0882 340.923C70.7968 340.923 71.4181 341.083 71.9519 341.404C72.4858 341.724 72.9032 342.151 73.2042 342.685C73.5051 343.219 73.6555 343.825 73.6555 344.505C73.6555 345.184 73.4905 345.796 73.1605 346.34C72.8402 346.883 72.3985 347.315 71.8355 347.636C71.2822 347.946 70.6463 348.101 69.928 348.101Z" fill="white" fill-opacity="0.5"/>
<path d="M125.003 347.927V338.317H122.95V337.079H126.444V347.927H125.003ZM132.212 348.101C131.513 348.101 130.891 347.946 130.348 347.636C129.814 347.325 129.392 346.903 129.081 346.369C128.77 345.825 128.615 345.209 128.615 344.52C128.615 344.141 128.659 343.767 128.746 343.398C128.833 343.03 128.974 342.656 129.168 342.277C129.362 341.899 129.61 341.505 129.911 341.098L132.969 337.079H134.687L130.945 341.942L130.683 341.913C130.828 341.719 130.988 341.569 131.163 341.462C131.348 341.355 131.542 341.277 131.746 341.229C131.959 341.18 132.182 341.156 132.415 341.156C133.056 341.156 133.629 341.306 134.134 341.607C134.648 341.899 135.051 342.301 135.342 342.816C135.643 343.33 135.793 343.923 135.793 344.592C135.793 345.262 135.638 345.864 135.327 346.398C135.017 346.922 134.59 347.339 134.046 347.65C133.512 347.951 132.901 348.101 132.212 348.101ZM132.212 346.82C132.619 346.82 132.983 346.728 133.304 346.543C133.624 346.349 133.876 346.082 134.061 345.743C134.255 345.403 134.352 345.024 134.352 344.607C134.352 344.17 134.26 343.792 134.075 343.471C133.891 343.141 133.638 342.879 133.318 342.685C132.998 342.491 132.629 342.394 132.212 342.394C131.804 342.394 131.435 342.491 131.105 342.685C130.775 342.879 130.518 343.141 130.333 343.471C130.149 343.792 130.057 344.17 130.057 344.607C130.057 345.024 130.149 345.403 130.333 345.743C130.527 346.082 130.785 346.349 131.105 346.543C131.435 346.728 131.804 346.82 132.212 346.82Z" fill="white" fill-opacity="0.5"/>
<path d="M187.414 347.927V338.317H185.361V337.079H188.856V347.927H187.414ZM191.503 347.927L196.265 338.317H190.95V337.079H197.764V338.317L193.047 347.927H191.503Z" fill="white" fill-opacity="0.5"/>
<path d="M248.825 347.927V338.317H246.772V337.079H250.266V347.927H248.825ZM256.379 348.101C255.651 348.101 255.006 347.956 254.443 347.665C253.889 347.373 253.453 346.98 253.132 346.485C252.822 345.98 252.666 345.417 252.666 344.796C252.666 344.097 252.86 343.486 253.249 342.962C253.637 342.437 254.171 342.064 254.85 341.84L254.821 342.204C254.307 342.001 253.904 341.675 253.613 341.229C253.331 340.773 253.191 340.282 253.191 339.758C253.191 339.205 253.326 338.715 253.598 338.288C253.88 337.86 254.258 337.526 254.734 337.283C255.219 337.03 255.768 336.904 256.379 336.904C256.991 336.904 257.534 337.026 258.01 337.268C258.486 337.511 258.86 337.851 259.131 338.288C259.413 338.715 259.554 339.205 259.554 339.758C259.554 340.312 259.403 340.807 259.102 341.243C258.811 341.68 258.423 342.005 257.937 342.219L257.894 341.84C258.583 342.064 259.122 342.442 259.51 342.976C259.898 343.5 260.092 344.107 260.092 344.796C260.092 345.417 259.932 345.98 259.612 346.485C259.301 346.98 258.864 347.373 258.301 347.665C257.748 347.956 257.107 348.101 256.379 348.101ZM256.379 346.864C256.836 346.864 257.234 346.776 257.573 346.602C257.913 346.427 258.175 346.184 258.36 345.874C258.554 345.553 258.651 345.189 258.651 344.782C258.651 344.364 258.554 344 258.36 343.69C258.175 343.369 257.913 343.127 257.573 342.962C257.234 342.787 256.836 342.699 256.379 342.699C255.923 342.699 255.52 342.787 255.171 342.962C254.831 343.127 254.569 343.369 254.385 343.69C254.2 344 254.108 344.364 254.108 344.782C254.108 345.189 254.2 345.553 254.385 345.874C254.569 346.184 254.831 346.427 255.171 346.602C255.52 346.776 255.923 346.864 256.379 346.864ZM256.379 341.462C256.709 341.462 257.001 341.389 257.253 341.243C257.515 341.098 257.724 340.904 257.879 340.661C258.034 340.409 258.112 340.117 258.112 339.787C258.112 339.457 258.034 339.171 257.879 338.928C257.724 338.686 257.515 338.496 257.253 338.36C257.001 338.215 256.709 338.142 256.379 338.142C256.04 338.142 255.739 338.215 255.477 338.36C255.214 338.496 255.006 338.686 254.85 338.928C254.695 339.171 254.617 339.457 254.617 339.787C254.617 340.117 254.695 340.409 254.85 340.661C255.006 340.904 255.214 341.098 255.477 341.243C255.739 341.389 256.04 341.462 256.379 341.462Z" fill="white" fill-opacity="0.5"/>
<path d="M311.236 347.927V338.317H309.183V337.079H312.677V347.927H311.236ZM316.068 347.927L319.81 343.049L320.072 343.078C319.926 343.272 319.766 343.428 319.591 343.544C319.417 343.651 319.222 343.728 319.009 343.777C318.805 343.825 318.582 343.85 318.339 343.85C317.698 343.85 317.121 343.704 316.606 343.413C316.102 343.112 315.699 342.704 315.398 342.19C315.107 341.666 314.961 341.069 314.961 340.399C314.961 339.729 315.116 339.132 315.427 338.608C315.738 338.084 316.165 337.671 316.708 337.37C317.252 337.06 317.863 336.904 318.543 336.904C319.242 336.904 319.858 337.06 320.392 337.37C320.936 337.671 321.363 338.093 321.673 338.637C321.984 339.171 322.139 339.787 322.139 340.486C322.139 340.865 322.096 341.239 322.008 341.607C321.921 341.976 321.78 342.35 321.586 342.729C321.402 343.107 321.154 343.5 320.844 343.908L317.786 347.927H316.068ZM318.543 342.598C318.96 342.598 319.329 342.505 319.65 342.321C319.98 342.127 320.237 341.865 320.421 341.535C320.606 341.195 320.698 340.816 320.698 340.399C320.698 339.962 320.601 339.579 320.407 339.249C320.222 338.919 319.97 338.656 319.65 338.462C319.329 338.268 318.96 338.171 318.543 338.171C318.135 338.171 317.771 338.268 317.451 338.462C317.131 338.656 316.873 338.919 316.679 339.249C316.495 339.579 316.403 339.962 316.403 340.399C316.403 340.816 316.495 341.195 316.679 341.535C316.864 341.865 317.116 342.127 317.436 342.321C317.766 342.505 318.135 342.598 318.543 342.598Z" fill="white" fill-opacity="0.5"/>
<path d="M371.841 347.927V346.937L374.841 343.69C375.433 343.059 375.904 342.539 376.253 342.132C376.613 341.724 376.875 341.36 377.04 341.04C377.205 340.719 377.287 340.379 377.287 340.02C377.287 339.428 377.112 338.972 376.763 338.652C376.414 338.331 375.952 338.171 375.38 338.171C374.797 338.171 374.302 338.341 373.895 338.681C373.487 339.011 373.205 339.482 373.05 340.093L371.754 339.758C371.88 339.176 372.113 338.671 372.453 338.244C372.793 337.817 373.215 337.487 373.72 337.254C374.225 337.021 374.778 336.904 375.38 336.904C376.04 336.904 376.617 337.035 377.112 337.297C377.617 337.55 378.01 337.904 378.292 338.36C378.583 338.817 378.729 339.346 378.729 339.947C378.729 340.345 378.646 340.734 378.481 341.112C378.316 341.491 378.073 341.894 377.753 342.321C377.433 342.738 377.015 343.224 376.501 343.777L373.822 346.689H378.962V347.927H371.841ZM385.057 348.101C384.193 348.101 383.436 347.869 382.786 347.403C382.145 346.927 381.645 346.272 381.286 345.437C380.927 344.592 380.747 343.612 380.747 342.496C380.747 341.379 380.927 340.404 381.286 339.569C381.645 338.724 382.145 338.069 382.786 337.603C383.426 337.137 384.179 336.904 385.043 336.904C385.907 336.904 386.659 337.137 387.3 337.603C387.94 338.069 388.44 338.724 388.799 339.569C389.168 340.404 389.353 341.379 389.353 342.496C389.353 343.612 389.173 344.592 388.814 345.437C388.455 346.281 387.95 346.937 387.3 347.403C386.659 347.869 385.911 348.101 385.057 348.101ZM385.057 346.776C385.64 346.776 386.144 346.602 386.572 346.252C386.999 345.893 387.329 345.393 387.562 344.753C387.804 344.112 387.926 343.36 387.926 342.496C387.926 341.632 387.804 340.879 387.562 340.239C387.329 339.598 386.994 339.103 386.557 338.754C386.13 338.404 385.625 338.229 385.043 338.229C384.46 338.229 383.955 338.404 383.528 338.754C383.101 339.103 382.766 339.598 382.524 340.239C382.291 340.879 382.174 341.632 382.174 342.496C382.174 343.35 382.291 344.097 382.524 344.738C382.766 345.379 383.101 345.879 383.528 346.238C383.965 346.597 384.475 346.776 385.057 346.776Z" fill="white" fill-opacity="0.5"/>
<path d="M439.253 347.927V346.937L442.252 343.69C442.844 343.059 443.315 342.539 443.664 342.132C444.024 341.724 444.286 341.36 444.451 341.04C444.616 340.719 444.698 340.379 444.698 340.02C444.698 339.428 444.524 338.972 444.174 338.652C443.825 338.331 443.364 338.171 442.791 338.171C442.208 338.171 441.713 338.341 441.306 338.681C440.898 339.011 440.616 339.482 440.461 340.093L439.165 339.758C439.291 339.176 439.524 338.671 439.864 338.244C440.204 337.817 440.626 337.487 441.131 337.254C441.636 337.021 442.189 336.904 442.791 336.904C443.451 336.904 444.028 337.035 444.524 337.297C445.028 337.55 445.421 337.904 445.703 338.36C445.994 338.817 446.14 339.346 446.14 339.947C446.14 340.345 446.057 340.734 445.892 341.112C445.727 341.491 445.485 341.894 445.164 342.321C444.844 342.738 444.426 343.224 443.912 343.777L441.233 346.689H446.373V347.927H439.253ZM449.775 347.927V338.317H447.722V337.079H451.216V347.927H449.775Z" fill="white" fill-opacity="0.5"/>
<rect x="225.111" y="48" width="65.7523" height="32.1456" rx="8.22991" fill="#954CEE"/>
<path d="M251.161 71.6463C250.337 71.6463 249.594 71.4534 248.934 71.0677C248.279 70.6761 247.759 70.1355 247.373 69.4458C246.988 68.7561 246.795 67.9642 246.795 67.07V63.23C246.795 62.2715 246.985 61.4386 247.365 60.7314C247.75 60.0242 248.288 59.4778 248.978 59.092C249.673 58.7063 250.48 58.5134 251.397 58.5134C252.034 58.5134 252.639 58.6215 253.212 58.8378C253.785 59.0482 254.293 59.3872 254.738 59.8547L253.212 61.3364C252.99 61.0733 252.718 60.8659 252.397 60.7139C252.081 60.5619 251.748 60.486 251.397 60.486C250.906 60.486 250.477 60.6029 250.109 60.8366C249.74 61.0646 249.454 61.3656 249.25 61.7396C249.051 62.1137 248.951 62.514 248.951 62.9407V65.036L248.566 64.6152C248.928 64.1944 249.363 63.8671 249.872 63.6333C250.38 63.3937 250.912 63.2739 251.468 63.2739C252.262 63.2739 252.964 63.455 253.572 63.8174C254.179 64.1739 254.659 64.6649 255.009 65.2903C255.36 65.9098 255.535 66.617 255.535 67.4119C255.535 68.2009 255.334 68.9169 254.931 69.5598C254.533 70.1968 254.004 70.7053 253.344 71.0852C252.683 71.4593 251.956 71.6463 251.161 71.6463ZM251.161 69.6211C251.57 69.6211 251.944 69.5247 252.283 69.3318C252.622 69.1331 252.891 68.8672 253.089 68.534C253.294 68.195 253.396 67.821 253.396 67.4119C253.396 67.0027 253.297 66.6287 253.098 66.2897C252.899 65.9507 252.631 65.6818 252.292 65.4831C251.959 65.2786 251.587 65.1763 251.178 65.1763C250.769 65.1763 250.395 65.2786 250.056 65.4831C249.717 65.6818 249.448 65.9507 249.25 66.2897C249.051 66.6287 248.951 67.0027 248.951 67.4119C248.951 67.8093 249.048 68.1775 249.241 68.5165C249.439 68.8496 249.705 69.1185 250.039 69.3231C250.378 69.5218 250.752 69.6211 251.161 69.6211ZM257.948 63.2476L258.071 62.3358C258.34 62.3592 258.553 62.3153 258.711 62.2043C258.869 62.0874 258.974 61.9267 259.026 61.7221C259.085 61.5117 259.099 61.275 259.07 61.012H257.948V58.7589H260.113V61.0996C260.113 61.8653 259.932 62.4439 259.57 62.8355C259.208 63.2271 258.667 63.3644 257.948 63.2476ZM266.28 71.62C265.649 71.62 265.052 71.4973 264.491 71.2518C263.93 71.0063 263.442 70.6586 263.027 70.2085C262.618 69.7585 262.323 69.2266 262.142 68.6129L264.184 68.0606C264.331 68.5633 264.597 68.9519 264.982 69.2266C265.374 69.4955 265.803 69.627 266.271 69.6211C266.686 69.6211 267.057 69.5247 267.384 69.3318C267.712 69.139 267.969 68.8789 268.156 68.5516C268.343 68.2184 268.436 67.8473 268.436 67.4382C268.436 66.8128 268.235 66.2897 267.832 65.8689C267.428 65.4481 266.908 65.2377 266.271 65.2377C266.078 65.2377 265.888 65.264 265.701 65.3166C265.52 65.3692 265.345 65.4422 265.175 65.5357L264.211 63.87L268.454 60.2405L268.638 60.749H262.633V58.7589H270.374V60.7577L266.964 64.0366L266.946 63.4141C267.712 63.4667 268.363 63.6801 268.901 64.0541C269.445 64.4282 269.86 64.9104 270.146 65.5007C270.438 66.091 270.584 66.7368 270.584 67.4382C270.584 68.233 270.389 68.9461 269.997 69.5773C269.611 70.2085 269.091 70.7082 268.436 71.0765C267.788 71.4388 267.069 71.62 266.28 71.62Z" fill="white"/>
<path d="M257.257 88.9126L266.115 79.0498H248.399L257.257 88.9126Z" fill="#954CEE"/>
<path d="M454.514 298.589H62.9224C210.5 189.733 320.087 137.131 454.514 125.441V298.589Z" fill="#934CEE" fill-opacity="0.2"/>
<path d="M61.4614 297.858C236.151 164.746 359.228 130.636 454.514 123.98" stroke="#954CEE" stroke-width="3.97299"/>
<g filter="url(#filter0_d_1234_10794)">
<circle cx="256.394" cy="175.72" r="7.9044" fill="#954CEE"/>
<circle cx="256.394" cy="175.72" r="11.2229" stroke="white" stroke-width="6.63696"/>
</g>
<defs>
<filter id="filter0_d_1234_10794" x="216.617" y="134.615" width="82.2091" height="82.2091" filterUnits="userSpaceOnUse" color-interpolation-filters="sRGB">
<feFlood flood-opacity="0" result="BackgroundImageFix"/>
<feColorMatrix in="SourceAlpha" type="matrix" values="0 0 0 0 0 0 0 0 0 0 0 0 0 0 0 0 0 0 127 0" result="hardAlpha"/>
<feMorphology radius="4.64587" operator="dilate" in="SourceAlpha" result="effect1_dropShadow_1234_10794"/>
<feOffset dx="1.32739"/>
<feGaussianBlur stdDeviation="10.9587"/>
<feComposite in2="hardAlpha" operator="out"/>
<feColorMatrix type="matrix" values="0 0 0 0 0.373167 0 0 0 0 0.127772 0 0 0 0 0.672347 0 0 0 0.86 0"/>
<feBlend mode="normal" in2="BackgroundImageFix" result="effect1_dropShadow_1234_10794"/>
<feBlend mode="normal" in="SourceGraphic" in2="effect1_dropShadow_1234_10794" result="shape"/>
</filter>
<linearGradient id="paint0_linear_1234_10794" x1="257.5" y1="0" x2="257.5" y2="400" gradientUnits="userSpaceOnUse">
<stop stop-color="#151515"/>
<stop offset="0.0001" stop-color="#101010"/>
<stop offset="0.2" stop-color="#121212"/>
<stop offset="1" stop-color="#0B0B0B"/>
</linearGradient>
</defs>
</svg>
