<svg width="19" height="21" viewBox="0 0 19 21" fill="none" xmlns="http://www.w3.org/2000/svg">
<path d="M1.5 7.5H17.5M1.5 7.5V16.3002C1.5 17.4203 1.5 17.9801 1.71799 18.4079C1.90973 18.7842 2.21547 19.0905 2.5918 19.2822C3.0192 19.5 3.57899 19.5 4.69691 19.5H14.3031C15.421 19.5 15.98 19.5 16.4074 19.2822C16.7837 19.0905 17.0905 18.7842 17.2822 18.4079C17.5 17.9805 17.5 17.4215 17.5 16.3036V7.5M1.5 7.5V6.7002C1.5 5.58009 1.5 5.01962 1.71799 4.5918C1.90973 4.21547 2.21547 3.90973 2.5918 3.71799C3.01962 3.5 3.58009 3.5 4.7002 3.5H5.5M17.5 7.5V6.69691C17.5 5.57899 17.5 5.0192 17.2822 4.5918C17.0905 4.21547 16.7837 3.90973 16.4074 3.71799C15.9796 3.5 15.4203 3.5 14.3002 3.5H13.5M5.5 3.5H13.5M5.5 3.5V1.5M13.5 3.5V1.5M12.5 11.5L8.5 15.5L6.5 13.5" stroke="#954CEE" stroke-width="2" stroke-linecap="round" stroke-linejoin="round"/>
</svg>
